<svg width="100" height="100" viewBox="0 0 100 100" fill="none" xmlns="http://www.w3.org/2000/svg">
<g clip-path="url(#clip0_705_175)">
<path d="M24.1667 12H75.8333C83.6667 12 90 18.1709 90 25.8034V74.1966C90 81.8291 83.6667 88 75.8333 88H24.1667C16.3333 88 10 81.8291 10 74.1966V25.8034C10 18.1709 16.3333 12 24.1667 12Z" fill="#470137"/>
<path d="M52.0666 31.9744L42.0666 48.0513L52.7333 65.1026C52.8 65.2325 52.8333 65.3624 52.8 65.4923C52.7666 65.6222 52.6333 65.5248 52.4333 65.5573H44.8C44.2666 65.5573 43.9 65.5248 43.6666 65.2C42.9666 63.8359 42.2333 62.5043 41.5333 61.1402C40.8333 59.8086 40.0666 58.4444 39.2666 57.0479C38.4666 55.6513 37.6666 54.2547 36.8666 52.8256H36.8C36.1 54.2222 35.3333 55.6188 34.5666 57.0154C33.8 58.412 33.0333 59.8085 32.3 61.1727C31.5333 62.5368 30.7666 63.9333 30 65.265C29.8666 65.5897 29.6 65.6222 29.2333 65.6222H21.9C21.7666 65.6222 21.6666 65.6872 21.6666 65.5248C21.6333 65.3949 21.6666 65.265 21.7333 65.1675L32.1 48.6034L22 31.9419C21.9 31.812 21.8666 31.6821 21.9333 31.6171C22 31.5197 22.1333 31.4872 22.2666 31.4872H29.8333C30 31.4872 30.1666 31.5197 30.3 31.5521C30.4333 31.6171 30.5333 31.7145 30.6333 31.8444C31.2666 33.241 32 34.6376 32.7666 36.0342C33.5666 37.4308 34.3333 38.7949 35.1666 40.159C35.9666 41.5231 36.7 42.8872 37.4 44.2838H37.4666C38.1666 42.8547 38.9 41.4581 39.6333 40.094C40.3666 38.7299 41.1333 37.3658 41.9 36.0017C42.6666 34.6376 43.4 33.241 44.1333 31.9094C44.1666 31.7795 44.2333 31.6496 44.3333 31.5846C44.4666 31.5197 44.6 31.4872 44.7666 31.5197H51.8C51.9666 31.4872 52.1333 31.5846 52.1666 31.747C52.2 31.7795 52.1333 31.9094 52.0666 31.9744Z" fill="#FF61F6"/>
<path d="M67.4667 66.2393C65 66.2718 62.5333 65.7846 60.3 64.7778C58.2 63.8359 56.4667 62.2769 55.2667 60.3607C54.0333 58.3795 53.4333 55.9111 53.4333 52.9556C53.4 50.5521 54.0333 48.1812 55.2667 46.1026C56.5333 43.9915 58.3667 42.2376 60.5667 41.0684C62.9 39.8017 65.7 39.1846 69 39.1846C69.1667 39.1846 69.4 39.1846 69.7 39.2171C70 39.2496 70.3333 39.2496 70.7333 39.2821V29.0188C70.7333 28.7915 70.8333 28.6615 71.0667 28.6615H77.8333C78 28.6291 78.1333 28.759 78.1667 28.8889C78.1667 28.9214 78.1667 28.9539 78.1667 28.9539V59.8735C78.1667 60.4581 78.2 61.1077 78.2333 61.8222C78.3 62.5043 78.3333 63.1539 78.3667 63.706C78.3667 63.9333 78.2667 64.1282 78.0333 64.2256C76.3 64.9402 74.4667 65.4598 72.6 65.7846C70.9 66.0769 69.2 66.2393 67.4667 66.2393ZM70.7333 59.7436V45.453C70.4333 45.388 70.1333 45.3231 69.8333 45.2906C69.4667 45.2581 69.1 45.2256 68.7333 45.2256C67.4333 45.2256 66.1333 45.4855 64.9667 46.0701C63.8333 46.6222 62.8667 47.4342 62.1333 48.4735C61.4 49.5128 61.0333 50.9094 61.0333 52.5983C61 53.735 61.2 54.8718 61.6 55.9436C61.9333 56.8205 62.4333 57.6 63.1 58.2496C63.7333 58.8342 64.5 59.2889 65.3667 59.5487C66.2667 59.841 67.2 59.9709 68.1333 59.9709C68.6333 59.9709 69.1 59.9385 69.5333 59.906C69.9667 59.9385 70.3333 59.8735 70.7333 59.7436Z" fill="#FF61F6"/>
</g>
<defs>
<clipPath id="clip0_705_175">
<rect width="80" height="76" fill="white" transform="translate(10 12)"/>
</clipPath>
</defs>
</svg>
