<svg width="100" height="100" viewBox="0 0 100 100" fill="none" xmlns="http://www.w3.org/2000/svg">
<path d="M21.9058 82.2185L15.5435 10.8556H85.4566L79.088 82.2077L50.4576 90.1451L21.9058 82.2185Z" fill="#1572B6"/>
<path d="M50.5006 84.0783L73.6356 77.6641L79.0784 16.6901H50.5006V84.0783Z" fill="#33A9DC"/>
<path d="M50.5006 42.5449H62.0823L62.8822 33.5824H50.5006V24.83H72.4478L72.2377 27.1783L70.0862 51.2973H50.5006V42.5449Z" fill="white"/>
<path d="M50.5525 65.2755L50.5139 65.2869L40.7667 62.6551L40.1433 55.6745H31.3586L32.5844 69.4173L50.5126 74.3931L50.5525 74.3817V65.2755Z" fill="#EBEBEB"/>
<path d="M61.3381 50.9271L60.2839 62.6481L50.5221 65.2831V74.3893L68.4649 69.4166L68.5965 67.9378L70.119 50.9271H61.3381Z" fill="white"/>
<path d="M50.5304 24.83V33.5824H29.3894L29.2141 31.6156L28.8154 27.1783L28.606 24.83H50.5304ZM50.5006 42.5462V51.2986H40.8762L40.7009 49.3318L40.3016 44.8945L40.0928 42.5462H50.5006Z" fill="#EBEBEB"/>
</svg>
