<svg width="100" height="100" viewBox="0 0 100 100" fill="none" xmlns="http://www.w3.org/2000/svg">
<rect x="10" y="10" width="80" height="80" rx="40" fill="white"/>
<path d="M36.6667 59.8353V44.472H37.5V46.8887C37.5984 46.7815 37.6893 46.6677 37.772 46.548C38.468 45.104 39.936 44.1927 41.5387 44.2107C43.4387 44.154 44.9827 44.8573 45.89 46.548C46.4674 47.5983 46.7851 48.7715 46.8166 49.9697C46.8482 51.1678 46.5926 52.3561 46.0713 53.4353C45.226 55.33 43.138 56.272 40.9027 55.926C40.207 55.8669 39.5372 55.6344 38.9545 55.2499C38.3718 54.8654 37.8946 54.341 37.5667 53.7247V59.8347L36.6667 59.8353ZM37.5 49.9067L37.6867 51.7107C38.016 53.764 39.23 54.9773 41.136 55.2053C42.0311 55.3525 42.9495 55.1847 43.7347 54.7305C44.5199 54.2763 45.1233 53.5639 45.442 52.7147C46.1833 50.948 46.1287 48.948 45.2953 47.2227C44.9552 46.4614 44.3764 45.8315 43.6466 45.4282C42.9168 45.025 42.0756 44.8702 41.25 44.9873C40.4751 45.0437 39.737 45.34 39.1382 45.8351C38.5394 46.3302 38.1096 46.9995 37.9087 47.75C37.7312 48.4602 37.5947 49.1801 37.5 49.906V49.9067ZM63.832 51.9947C63.7056 53.0764 63.1907 54.0754 62.3829 54.8059C61.5752 55.5364 60.5296 55.9486 59.4407 55.966C55.946 56.142 54.306 53.8213 54.0453 51.1433C53.8641 49.689 54.1001 48.2132 54.726 46.888C55.1616 45.9789 55.8753 45.2321 56.7637 44.7558C57.6521 44.2795 58.6691 44.0983 59.6673 44.2387C60.6163 44.3193 61.5159 44.6964 62.2388 45.3165C62.9617 45.9366 63.4712 46.7683 63.6953 47.694C63.8729 48.5372 64.0035 49.3896 64.0867 50.2473H54.9087C54.7387 52.6753 56.0433 54.6273 57.8927 55.098C60.196 55.6647 62.1647 54.6667 62.8793 52.4767C63.038 51.9147 63.3273 51.8353 63.838 51.9947H63.832ZM54.902 49.47H63.1113C63.06 46.8833 61.4493 45.0033 59.2647 44.982C56.798 44.942 55.0093 46.7467 54.902 49.47ZM65.5287 52.0513H66.3333C66.3629 52.6441 66.5554 53.2173 66.8897 53.7078C67.224 54.1983 67.687 54.587 68.228 54.8313C68.9072 55.137 69.6467 55.2856 70.3913 55.2659C71.1359 55.2463 71.8665 55.059 72.5287 54.718C72.8896 54.5555 73.192 54.286 73.3949 53.9461C73.5979 53.6062 73.6915 53.2122 73.6633 52.8173C73.6841 52.4365 73.5801 52.0593 73.3672 51.7429C73.1543 51.4265 72.8439 51.1881 72.4833 51.064C71.598 50.7347 70.6567 50.5533 69.7547 50.264C68.8161 49.9968 67.8983 49.6612 67.0087 49.26C65.5553 48.5507 65.4653 45.788 67.1107 44.9133C67.9531 44.4379 68.9012 44.1811 69.8685 44.1662C70.8357 44.1513 71.7913 44.3788 72.648 44.828C73.7107 45.4147 74.298 46.5993 74.1233 47.8013H73.4333C73.4333 47.768 73.3707 47.7387 73.3707 47.7047C73.2853 45.5047 71.436 44.8167 69.4507 45.01C68.8507 45.0767 68.282 45.258 67.7487 45.526C67.4281 45.6724 67.1609 45.9149 66.9841 46.2198C66.8074 46.5247 66.7297 46.877 66.762 47.228C66.7627 47.5792 66.8721 47.9216 67.0753 48.2081C67.2785 48.4947 67.5654 48.7112 67.8967 48.828C68.7633 49.146 69.6833 49.35 70.58 49.5993L72.7467 50.166C73.2391 50.3276 73.6709 50.635 73.9849 51.0473C74.299 51.4597 74.4804 51.9576 74.5053 52.4753C74.6787 53.6387 74.0853 54.782 73.036 55.312C71.1413 56.384 68.0207 56.1007 66.6307 54.7453C65.9193 54.03 65.5227 53.0587 65.5307 52.0507L65.5287 52.0513ZM84.7153 47.802H83.9607C83.9607 47.7 83.9207 47.602 83.9093 47.524C83.8973 46.9583 83.6911 46.414 83.3254 45.9822C82.9597 45.5505 82.4567 45.2576 81.9007 45.1527C80.8518 44.8518 79.733 44.9057 78.718 45.306C78.3166 45.4209 77.9632 45.6626 77.7106 45.9949C77.4581 46.3273 77.3198 46.7325 77.3167 47.15C77.3023 47.5599 77.4299 47.9622 77.678 48.2888C77.926 48.6155 78.2793 48.8464 78.678 48.9427L82.1273 49.828C82.5004 49.9175 82.8677 50.0292 83.2273 50.1627C84.3273 50.5627 85.074 51.584 85.1073 52.7513C85.1238 53.3227 84.9671 53.8857 84.6577 54.3664C84.3484 54.8471 83.9009 55.223 83.374 55.4447C82.5734 55.8083 81.7057 56.0007 80.8264 56.0096C79.9472 56.0184 79.0757 55.8435 78.268 55.496C77.6037 55.2096 77.0432 54.7265 76.6617 54.1118C76.2803 53.4971 76.0964 52.7804 76.1347 52.058H76.872C77.1493 53.3947 78.0673 54.508 79.3267 55.0347C80.586 55.5613 82.024 55.432 83.1693 54.6907C83.513 54.512 83.7982 54.2385 83.9913 53.9027C84.1843 53.567 84.2771 53.1829 84.2587 52.796C84.2758 52.4149 84.1681 52.0386 83.952 51.7243C83.7359 51.4099 83.4232 51.1746 83.0613 51.054C82.176 50.7247 81.2347 50.5493 80.3327 50.254C79.3888 49.9909 78.4655 49.6591 77.57 49.2613C76.1513 48.5633 76.038 45.8233 77.6553 44.9493C78.5082 44.454 79.4748 44.1879 80.4611 44.1769C81.4473 44.1659 82.4196 44.4104 83.2833 44.8867C83.7774 45.1815 84.175 45.6136 84.4278 46.1304C84.6807 46.6472 84.7778 47.2263 84.7073 47.7973L84.7153 47.802ZM35.2953 55.6887C34.9983 55.801 34.6704 55.8007 34.3735 55.6878C34.0767 55.575 33.8314 55.3573 33.684 55.076L30.7507 51.0193L30.3253 50.4527L26.9213 55.082C26.7826 55.3512 26.5506 55.5607 26.2687 55.6714C25.9867 55.7821 25.6742 55.7863 25.3893 55.6833L29.7747 49.8L25.6947 44.484C26.3 44.2653 26.9747 44.5027 27.3113 45.0507L30.3513 49.1573L33.4093 45.0667C33.5491 44.8021 33.7813 44.598 34.0616 44.4934C34.342 44.3888 34.6511 44.3909 34.93 44.4993L33.3467 46.6L31.202 49.3913C31.1425 49.4445 31.0948 49.5096 31.0622 49.5825C31.0296 49.6553 31.0128 49.7342 31.0128 49.814C31.0128 49.8938 31.0296 49.9727 31.0622 50.0455C31.0948 50.1184 31.1425 50.1835 31.202 50.2367L35.2867 55.6887H35.2953ZM53.9153 44.4273V45.2273C53.3415 45.1897 52.7662 45.2728 52.2265 45.4713C51.6868 45.6697 51.1946 45.9792 50.7819 46.3796C50.3692 46.78 50.045 47.2625 49.8303 47.796C49.6156 48.3294 49.5151 48.902 49.5353 49.4767C49.5353 51.3451 49.5353 53.2136 49.5353 55.082V55.7173H48.724V44.4773H49.524V46.7807C50.5053 45.1007 52.02 44.4773 53.9207 44.432L53.9153 44.4273ZM14.8887 49.7267L15.246 47.962C16.2273 44.4727 20.2273 43.0207 22.9793 45.182C24.5907 46.4473 24.9927 48.24 24.914 50.26H15.836C15.6893 53.868 18.2927 56.0467 21.6227 54.9347C22.72 54.5347 23.546 53.6227 23.818 52.4893C23.994 51.9227 24.2847 51.8253 24.8167 51.9893C24.7279 52.6801 24.4837 53.3417 24.1025 53.9245C23.7212 54.5073 23.2127 54.996 22.6153 55.354C21.6284 55.8938 20.496 56.1076 19.3802 55.965C18.2643 55.8224 17.2222 55.3306 16.4027 54.56C15.592 53.6487 15.1027 52.4967 15.0073 51.28C15.0073 51.08 14.9407 50.8933 14.894 50.7133C14.8896 50.3769 14.8873 50.048 14.8873 49.7267H14.8887ZM15.8473 49.4827H24.0567C24.0053 46.8673 22.3547 45.012 20.1533 44.9947C17.7027 44.9613 15.9493 46.776 15.8413 49.4713L15.8473 49.4827Z" fill="black"/>
</svg>
