<svg width="100" height="100" viewBox="0 0 100 100" fill="none" xmlns="http://www.w3.org/2000/svg">
<g clip-path="url(#clip0_705_58)">
<path d="M38.4375 90.625C45.875 90.625 51.875 84.625 51.875 77.1875V63.75H38.4375C31 63.75 25 69.75 25 77.1875C25 84.625 31 90.625 38.4375 90.625Z" fill="#0ACF83"/>
<path d="M25 50.3125C25 42.875 31 36.875 38.4375 36.875H51.875V63.75H38.4375C31 63.75 25 57.75 25 50.3125Z" fill="#A259FF"/>
<path d="M25 23.4375C25 16 31 10 38.4375 10H51.875V36.875H38.4375C31 36.875 25 30.875 25 23.4375Z" fill="#F24E1E"/>
<path d="M51.875 10H65.3125C72.75 10 78.75 16 78.75 23.4375C78.75 30.875 72.75 36.875 65.3125 36.875H51.875V10Z" fill="#FF7262"/>
<path d="M78.75 50.3125C78.75 57.75 72.75 63.75 65.3125 63.75C57.875 63.75 51.875 57.75 51.875 50.3125C51.875 42.875 57.875 36.875 65.3125 36.875C72.75 36.875 78.75 42.875 78.75 50.3125Z" fill="#1ABCFE"/>
</g>
<defs>
<clipPath id="clip0_705_58">
<rect width="80" height="80" fill="white" transform="translate(10 10)"/>
</clipPath>
</defs>
</svg>
