<svg width="100" height="100" viewBox="0 0 100 100" fill="none" xmlns="http://www.w3.org/2000/svg">
<path d="M86.4618 46.6252L53.374 13.539C51.4689 11.633 48.3785 11.633 46.4717 13.539L39.6016 20.4107L48.3167 29.1258C50.3423 28.4413 52.6647 28.9006 54.2787 30.5155C55.9027 32.1402 56.3579 34.4825 55.6561 36.5155L64.0569 44.9155C66.0899 44.2144 68.4338 44.6681 70.0569 46.2936C72.3249 48.5617 72.3249 52.2367 70.0569 54.5064C67.7872 56.7753 64.1122 56.7753 61.8416 54.5064C60.1361 52.7992 59.7138 50.292 60.579 48.1905L52.7439 40.3563V60.9724C53.2965 61.2462 53.8185 61.6107 54.2787 62.0709C56.5468 64.339 56.5468 68.014 54.2787 70.2846C52.0107 72.5518 48.3332 72.5518 46.0668 70.2846C43.7987 68.0132 43.7987 64.3382 46.0668 62.0709C46.6276 61.5109 47.2767 61.087 47.9695 60.8033V39.9951C47.2767 39.7114 46.6293 39.2916 46.0668 38.7274C44.3489 37.0103 43.9357 34.4883 44.8165 32.3786L36.2251 23.7856L13.5365 46.4718C11.6305 48.3794 11.6305 51.4697 13.5365 53.3757L46.626 86.4627C48.5311 88.3687 51.6206 88.3687 53.5282 86.4627L86.4618 53.5291C88.3678 51.6231 88.3678 48.5311 86.4618 46.6252Z" fill="#F05133"/>
</svg>
