<svg width="100" height="100" viewBox="0 0 100 100" fill="none" xmlns="http://www.w3.org/2000/svg">
<path d="M21.1956 81.9518L14.7861 10.0641H85.2139L78.7974 81.9409L49.9571 89.9359L21.1956 81.9518Z" fill="#E44D26"/>
<path d="M50 83.825L73.3047 77.3637L78.7878 15.9418H50V83.825Z" fill="#F16529"/>
<path d="M50 42.604H38.333L37.5271 33.575H50V24.7587H27.8914L28.1028 27.1239L30.2694 51.4209H50V42.604ZM50 65.5018L49.9609 65.5127L40.1421 62.8605L39.5149 55.8297H30.6634L31.8985 69.6729L49.9597 74.6865L50 74.6756V65.5018Z" fill="#EBEBEB"/>
<path d="M49.9692 42.604V51.4209H60.8259L59.8028 62.8554L49.9692 65.5095V74.6826L68.0445 69.6729L68.1771 68.1835L70.2489 44.9717L70.4635 42.604H68.088H49.9692ZM49.9692 24.7587V33.575H71.2662L71.443 31.5942L71.8453 27.1239L72.0561 24.7587H49.9692Z" fill="white"/>
</svg>
