<svg width="100" height="100" viewBox="0 0 100 100" fill="none" xmlns="http://www.w3.org/2000/svg">
<g clip-path="url(#clip0_705_252)">
<path d="M90 10H10V90H90V10Z" fill="#F7DF1E"/>
<path d="M63.7396 72.5003C65.3511 75.1314 67.4476 77.0654 71.1555 77.0654C74.2704 77.0654 76.2603 75.5085 76.2603 73.3574C76.2603 70.7797 74.2158 69.8666 70.7873 68.367L68.9079 67.5606C63.4831 65.2495 59.8793 62.3543 59.8793 56.2336C59.8793 50.5955 64.1752 46.3035 70.8889 46.3035C75.6685 46.3035 79.1047 47.967 81.5809 52.3225L75.7269 56.0812C74.4381 53.7701 73.0476 52.8597 70.8889 52.8597C68.6869 52.8597 67.2914 54.2565 67.2914 56.0812C67.2914 58.3365 68.6882 59.2495 71.9136 60.6463L73.793 61.4514C80.1803 64.1904 83.7866 66.9828 83.7866 73.2609C83.7866 80.0292 78.4698 83.7371 71.3295 83.7371C64.3479 83.7371 59.8374 80.4101 57.6304 76.0495L63.7396 72.5003ZM37.1835 73.1517C38.3644 75.247 39.4387 77.0184 42.0215 77.0184C44.4914 77.0184 46.0495 76.052 46.0495 72.2946V46.7327H53.5669V72.3962C53.5669 80.1803 49.0031 83.7231 42.3415 83.7231C36.3225 83.7231 32.8368 80.6082 31.0641 76.8565L37.1835 73.1517Z" fill="black"/>
</g>
<defs>
<clipPath id="clip0_705_252">
<rect width="80" height="80" fill="white" transform="translate(10 10)"/>
</clipPath>
</defs>
</svg>
