<svg width="100" height="100" viewBox="0 0 100 100" fill="none" xmlns="http://www.w3.org/2000/svg">
<g clip-path="url(#clip0_705_205)">
<path d="M49.541 74.0002C49.2769 74.0002 49.0147 73.9323 48.7832 73.8018L46.3713 72.4028C46.0111 72.2055 46.1869 72.1357 46.3057 72.0954C46.786 71.9307 46.8835 71.8935 47.3962 71.6082C47.4501 71.5781 47.5206 71.5887 47.5758 71.6206L49.4287 72.6978C49.4956 72.7333 49.5905 72.7333 49.6526 72.6978L56.8773 68.6123C56.9442 68.5751 56.9876 68.4989 56.9876 68.421V60.2535C56.9876 60.172 56.9442 60.0994 56.8758 60.0586L49.654 55.9767C49.5871 55.9377 49.4985 55.9377 49.4316 55.9767L42.2112 60.0586C42.1412 60.0976 42.0967 60.1738 42.0967 60.2518V68.4192C42.0967 68.4972 42.1401 68.5716 42.2089 68.6088L44.1873 69.7285C45.2615 70.2547 45.918 69.6346 45.918 69.011V60.9498C45.918 60.8346 46.0102 60.7461 46.1277 60.7461H47.0428C47.1567 60.7461 47.2508 60.8346 47.2508 60.9498V69.0145C47.2508 70.4177 46.4695 71.2238 45.1114 71.2238C44.6936 71.2238 44.3645 71.2238 43.4458 70.7809L41.5506 69.7108C41.0822 69.445 40.7928 68.9489 40.7928 68.4192V60.2518C40.7928 59.7203 41.0822 59.2242 41.5506 58.962L48.7825 54.8747C49.2401 54.6214 49.8477 54.6214 50.3016 54.8747L57.5245 58.9637C57.9911 59.2277 58.2822 59.722 58.2822 60.2535V68.421C58.2822 68.9507 57.9911 69.445 57.5245 69.7108L50.3016 73.798C50.0701 73.9291 49.8079 73.9965 49.5403 73.9965" fill="#689F63"/>
<path d="M51.7727 68.3723C48.6115 68.3723 47.9487 66.9507 47.9487 65.7583C47.9487 65.6449 48.042 65.5546 48.158 65.5546H49.0911C49.1942 65.5546 49.281 65.6281 49.2973 65.7279C49.4383 66.6594 49.8579 67.1293 51.7694 67.1293C53.2921 67.1293 53.9395 66.7923 53.9395 66.0012C53.9395 65.5459 53.7551 65.2075 51.3896 64.9807C49.4112 64.7894 48.1887 64.3624 48.1887 62.8122C48.1887 61.3842 49.4184 60.5338 51.4783 60.5338C53.7912 60.5338 54.9378 61.3204 55.0825 63.0106C55.0879 63.0691 55.0662 63.1258 55.0264 63.1683C54.9866 63.2091 54.9306 63.2339 54.8727 63.2339H53.9341C53.8365 63.2339 53.7515 63.1665 53.7316 63.0744C53.5055 62.0947 52.9594 61.7811 51.4746 61.7811C49.8127 61.7811 49.6192 62.348 49.6192 62.7732C49.6192 63.2888 49.847 63.4394 52.0895 63.7299C54.3103 64.0187 55.3646 64.4262 55.3646 65.9552C55.3646 67.4965 54.0517 68.3806 51.7622 68.3806M60.562 59.7188H60.8044C61.0033 59.7188 61.0413 59.5824 61.0413 59.5027C61.0413 59.2936 60.8948 59.2936 60.8134 59.2936H60.5638L60.562 59.7188ZM60.2673 59.0491H60.8044C60.9888 59.0491 61.3505 59.0491 61.3505 59.4531C61.3505 59.7348 61.1661 59.7933 61.0557 59.8287C61.2709 59.8429 61.2854 59.9811 61.3143 60.1759C61.3288 60.2982 61.3523 60.509 61.3957 60.5799H61.0648C61.0557 60.509 61.0051 60.1192 61.0051 60.098C60.9834 60.0112 60.9527 59.9687 60.8423 59.9687H60.5693V60.5817H60.2673V59.0491ZM59.6216 59.811C59.6216 60.4452 60.1443 60.959 60.7863 60.959C61.4337 60.959 61.9563 60.4346 61.9563 59.811C61.9563 59.1749 61.4265 58.67 60.7845 58.67C60.1515 58.67 59.6198 59.1678 59.6198 59.8092M62.1806 59.8145C62.1806 60.5657 61.5531 61.1787 60.7881 61.1787C60.0285 61.1787 59.3956 60.5728 59.3956 59.8145C59.3956 59.0421 60.043 58.4503 60.7881 58.4503C61.5386 58.4503 62.1788 59.0438 62.1788 59.8145" fill="#689F63"/>
<path fill-rule="evenodd" clip-rule="evenodd" d="M27.1688 42.0425C27.1688 41.7166 26.9934 41.4171 26.7062 41.255L19.0464 36.9374C18.9171 36.863 18.7722 36.8241 18.6254 36.8187H18.5462C18.3993 36.8241 18.2545 36.863 18.123 36.9374L10.4636 41.255C10.1782 41.418 10.0002 41.7174 10.0002 42.0434L10.0171 53.6727C10.0171 53.834 10.1021 53.9846 10.2467 54.0643C10.3878 54.1493 10.565 54.1493 10.7061 54.0643L15.2597 51.5095C15.5473 51.3419 15.7227 51.0457 15.7227 50.7229V45.29C15.7227 44.9658 15.8981 44.6664 16.1847 44.5052L18.1234 43.4113C18.2673 43.3298 18.4254 43.2894 18.5863 43.2894C18.7448 43.2894 18.9064 43.3295 19.0464 43.4112L20.9841 44.5046C21.271 44.6659 21.4471 44.9653 21.4471 45.2895V50.722C21.4471 51.0445 21.6249 51.3421 21.911 51.5086L26.4617 54.0616C26.6046 54.1449 26.7824 54.1449 26.9247 54.0616C27.065 53.9819 27.154 53.8313 27.154 53.6701L27.1688 42.0425ZM63.3137 48.0974C63.3137 48.1784 63.2697 48.2533 63.1979 48.2934L60.567 49.7791C60.4956 49.8193 60.4073 49.8193 60.3361 49.7791L57.7048 48.2934C57.6325 48.2532 57.5891 48.1782 57.5891 48.0974V45.1217C57.5891 45.0406 57.6325 44.9658 57.703 44.9251L60.3325 43.4369C60.4048 43.3961 60.4934 43.3961 60.5658 43.4369L63.197 44.9251C63.2694 44.9658 63.3128 45.0406 63.3128 45.1217L63.3137 48.0974ZM64.0244 26.0574C63.8808 25.9791 63.7061 25.9812 63.5643 26.0621C63.4233 26.1436 63.3361 26.2925 63.3361 26.4537V37.9696C63.3361 38.083 63.2746 38.1875 63.1744 38.2442C63.075 38.3009 62.9511 38.3009 62.8507 38.2442L60.932 37.1616C60.6462 36.9996 60.2943 36.9996 60.0075 37.1616L52.3451 41.4939C52.0589 41.6551 51.8822 41.9545 51.8822 42.2769V50.944C51.8822 51.2682 52.0589 51.5659 52.3451 51.7289L60.0075 56.0642C60.2936 56.2254 60.6459 56.2254 60.9329 56.0642L68.5952 51.7271C68.8809 51.5641 69.0582 51.2664 69.0582 50.9422V29.3419C69.0582 29.0131 68.8755 28.7106 68.5826 28.5499L64.0244 26.0574ZM89.5402 45.0434C89.8248 44.8815 90 44.5824 90 44.26V42.1595C90 41.8363 89.8246 41.5381 89.5394 41.3755L81.9259 37.0455C81.6384 36.8825 81.2857 36.8825 80.9982 37.0455L73.3377 41.3773C73.0501 41.5403 72.8747 41.8379 72.8747 42.1621V50.8257C72.8747 51.1516 73.0537 51.4528 73.3413 51.6141L80.953 55.8643C81.2333 56.022 81.5769 56.0238 81.8608 55.8696L86.4651 53.3627C86.6098 53.283 86.702 53.1324 86.702 52.9694C86.702 52.8064 86.6134 52.654 86.4687 52.5743L78.7612 48.2408C78.6165 48.161 78.5279 48.0104 78.5279 47.8492V45.1315C78.5279 44.9692 78.6147 44.8197 78.7593 44.7389L81.1573 43.3835C81.3002 43.302 81.4756 43.302 81.6185 43.3835L84.0183 44.7389C84.1611 44.8186 84.2498 44.9692 84.2498 45.1304V47.2671C84.2498 47.4283 84.3384 47.5789 84.4812 47.6604C84.6241 47.7401 84.8013 47.7401 84.9442 47.6586L89.5402 45.0434Z" fill="#333333"/>
<path fill-rule="evenodd" clip-rule="evenodd" d="M81.3498 44.6381C81.4041 44.6067 81.4721 44.6067 81.527 44.6381L82.9973 45.469C83.0523 45.5002 83.0859 45.5576 83.0859 45.6196V47.2832C83.0859 47.3452 83.0523 47.4026 82.9973 47.4338L81.527 48.2647C81.4721 48.2961 81.4041 48.2961 81.3498 48.2647L79.8805 47.4338C79.8244 47.4026 79.79 47.3452 79.79 47.2832V45.6196C79.79 45.5576 79.8226 45.5002 79.8787 45.469L81.3498 44.6381Z" fill="#689F63"/>
<mask id="mask0_705_205" style="mask-type:luminance" maskUnits="userSpaceOnUse" x="30" y="36" width="19" height="21">
<path d="M39.0661 37.0888L31.4471 41.397C31.1617 41.5582 30.9867 41.8559 30.9867 42.1776V50.8C30.9867 51.1219 31.1617 51.4194 31.4471 51.5806L39.0666 55.8922C39.3514 56.0529 39.7026 56.0529 39.9871 55.8922L47.6053 51.5806C47.8892 51.4194 48.0647 51.1218 48.0647 50.8V42.1776C48.0647 41.8559 47.8892 41.5582 47.6035 41.397L39.9864 37.0888C39.8435 37.0085 39.6844 36.9683 39.5252 36.9683C39.3661 36.9683 39.2069 37.0085 39.0641 37.0888" fill="white"/>
</mask>
<g mask="url(#mask0_705_205)">
<path d="M55.7639 40.6655L34.2951 30.3561L23.2871 52.3558L44.7554 62.6657L55.7639 40.6655Z" fill="url(#paint0_linear_705_205)"/>
</g>
<mask id="mask1_705_205" style="mask-type:luminance" maskUnits="userSpaceOnUse" x="31" y="36" width="17" height="21">
<path d="M31.1754 51.3475C31.2483 51.4401 31.3394 51.5204 31.4467 51.5806L37.9824 55.279L39.071 55.892C39.2338 55.9841 39.4194 56.0231 39.6016 56.0098C39.6624 56.005 39.7232 55.9939 39.7825 55.9774L47.8181 41.563C47.7566 41.4974 47.6846 41.4425 47.604 41.3965L42.6152 38.5742L39.9782 37.0877C39.9033 37.0452 39.8221 37.0151 39.7394 36.9938L31.1754 51.3475Z" fill="white"/>
</mask>
<g mask="url(#mask1_705_205)">
<path d="M21.8931 43.7147L37.0523 63.815L57.1006 49.3038L41.9405 29.2041L21.8931 43.7147Z" fill="url(#paint1_linear_705_205)"/>
</g>
<mask id="mask2_705_205" style="mask-type:luminance" maskUnits="userSpaceOnUse" x="31" y="36" width="18" height="21">
<path d="M39.4343 36.9733C39.3064 36.9857 39.1814 37.0247 39.0662 37.0888L31.469 41.3846L39.6612 56.0027C39.7751 55.9868 39.8873 55.9496 39.9885 55.8922L47.6075 51.5806C47.8426 51.447 48.0035 51.221 48.0524 50.9648L39.701 36.988C39.6395 36.9761 39.578 36.9699 39.5147 36.9699C39.4894 36.9699 39.4641 36.9711 39.4388 36.9735" fill="white"/>
</mask>
<g mask="url(#mask2_705_205)">
<path d="M31.4688 36.9699V56.0031H48.049V36.9699H31.4688Z" fill="url(#paint2_linear_705_205)"/>
</g>
</g>
<defs>
<linearGradient id="paint0_linear_705_205" x1="45.023" y1="35.4946" x2="34.3757" y2="57.6656" gradientUnits="userSpaceOnUse">
<stop offset="0.3" stop-color="#3E863D"/>
<stop offset="0.5" stop-color="#55934F"/>
<stop offset="0.8" stop-color="#5AAD45"/>
</linearGradient>
<linearGradient id="paint1_linear_705_205" x1="29.5635" y1="53.8801" x2="49.3201" y2="38.9794" gradientUnits="userSpaceOnUse">
<stop offset="0.57" stop-color="#3E863D"/>
<stop offset="0.72" stop-color="#619857"/>
<stop offset="1" stop-color="#76AC64"/>
</linearGradient>
<linearGradient id="paint2_linear_705_205" x1="31.4743" y1="46.487" x2="48.0522" y2="46.487" gradientUnits="userSpaceOnUse">
<stop offset="0.16" stop-color="#6BBF47"/>
<stop offset="0.38" stop-color="#79B461"/>
<stop offset="0.47" stop-color="#75AC64"/>
<stop offset="0.7" stop-color="#659E5A"/>
<stop offset="0.9" stop-color="#3E863D"/>
</linearGradient>
<clipPath id="clip0_705_205">
<rect width="80" height="48" fill="white" transform="translate(10 26)"/>
</clipPath>
</defs>
</svg>
