<svg width="100" height="100" viewBox="0 0 100 100" fill="none" xmlns="http://www.w3.org/2000/svg">
<path d="M73.2741 35.8289C74.5763 29.5212 74.8558 24.6833 74.014 21.1702C73.5134 19.0809 72.5982 17.3764 71.2065 16.1467C69.7372 14.8484 67.8796 14.2114 65.7923 14.2114C62.349 14.2114 58.7292 15.7799 54.8607 18.7597C53.2829 19.9752 51.6453 21.4402 49.9446 23.1556C49.8092 22.9815 49.6562 22.8173 49.4857 22.6655C44.6775 18.3852 40.6294 15.7258 37.167 14.7005C35.1083 14.0908 33.1754 14.0327 31.4152 14.6244C29.5572 15.249 28.0768 16.5402 27.0323 18.3487C25.3085 21.3333 24.8539 25.2552 25.4966 30.0977C25.7585 32.0715 26.2064 34.2216 26.8391 36.5513C26.6004 36.5801 26.3611 36.6329 26.1242 36.7114C20.0236 38.7309 15.7038 40.9026 13.0884 43.3845C11.5323 44.8612 10.5162 46.5052 10.1489 48.325C9.76119 50.2457 10.1392 52.1723 11.1825 53.9795C12.9031 56.9598 16.0667 59.3104 20.5736 61.1722C22.3833 61.9198 24.4309 62.5969 26.7186 63.2058C26.6142 63.4412 26.5333 63.6913 26.4791 63.9536C25.1769 70.2612 24.8974 75.0992 25.7392 78.6122C26.2398 80.7015 27.155 82.406 28.5467 83.6357C30.016 84.934 31.8737 85.5711 33.9609 85.5711C37.4043 85.5711 41.0241 84.0025 44.8925 81.0227C46.4871 79.7943 48.1428 78.3111 49.863 76.572C50.04 76.8486 50.2573 77.1057 50.5143 77.3345C55.3225 81.6147 59.3706 84.2741 62.833 85.2995C64.8917 85.9092 66.8246 85.9673 68.5848 85.3755C70.4428 84.7509 71.9232 83.4598 72.9677 81.6513C74.6915 78.6666 75.1461 74.7448 74.5034 69.9023C74.232 67.8571 73.761 65.6227 73.0915 63.1954C73.3532 63.1689 73.616 63.1136 73.8758 63.0276C79.9764 61.0081 84.2962 58.8363 86.9116 56.3544C88.4676 54.8777 89.4838 53.2338 89.8511 51.414C90.2388 49.4932 89.8608 47.5666 88.8175 45.7595C87.0969 42.7791 83.9333 40.4286 79.4264 38.5667C77.5627 37.7969 75.4469 37.1018 73.0762 36.4789C73.1607 36.2724 73.2274 36.0552 73.2741 35.8289Z" fill="#002C4B"/>
<path fill-rule="evenodd" clip-rule="evenodd" d="M43.8513 36.9473H56.1508C56.9049 36.9473 57.6015 37.3507 57.9768 38.0048L64.1377 48.7417C64.5101 49.3906 64.5101 50.1883 64.1377 50.8372L57.9768 61.5741C57.6015 62.2282 56.9049 62.6315 56.1508 62.6315H43.8513C43.0972 62.6315 42.4006 62.2282 42.0253 61.5741L35.8644 50.8372C35.492 50.1883 35.492 49.3906 35.8644 48.7417L42.0253 38.0048C42.4006 37.3507 43.0972 36.9473 43.8513 36.9473ZM54.6264 39.5901C55.381 39.5901 56.0778 39.9939 56.453 40.6485L61.0918 48.7426C61.4634 49.391 61.4634 50.1878 61.0918 50.8362L56.453 58.9303C56.0778 59.585 55.381 59.9888 54.6264 59.9888H45.3757C44.6211 59.9888 43.9243 59.585 43.5491 58.9303L38.9103 50.8362C38.5387 50.1878 38.5387 49.391 38.9103 48.7426L43.5491 40.6485C43.9243 39.9939 44.6211 39.5901 45.3757 39.5901H54.6264ZM52.9813 42.4806H47.0208C46.267 42.4806 45.5708 42.8836 45.1953 43.5371L42.206 48.7407C41.8329 49.3901 41.8329 50.1888 42.206 50.8381L45.1953 56.0417C45.5708 56.6953 46.267 57.0983 47.0208 57.0983H52.9813C53.7351 57.0983 54.4313 56.6953 54.8068 56.0417L57.7961 50.8381C58.1692 50.1888 58.1692 49.3901 57.7961 48.7407L54.8068 43.5371C54.4313 42.8836 53.7351 42.4806 52.9813 42.4806ZM51.3975 45.2472C52.1507 45.2472 52.8466 45.6496 53.2222 46.3024L54.6246 48.7394C54.9987 49.3894 54.9987 50.1894 54.6246 50.8395L53.2222 53.2765C52.8466 53.9293 52.1507 54.3317 51.3975 54.3317H48.6046C47.8514 54.3317 47.1556 53.9293 46.7799 53.2765L45.3775 50.8395C45.0034 50.1894 45.0034 49.3894 45.3775 48.7394L46.7799 46.3024C47.1556 45.6496 47.8514 45.2472 48.6046 45.2472H51.3975ZM50.0016 47.9725C49.3513 47.9725 48.7513 48.3188 48.4265 48.881C48.1018 49.4431 48.1018 50.1358 48.4265 50.6979C48.7513 51.26 49.3513 51.6063 50.0005 51.6063C50.6508 51.6063 51.2508 51.26 51.5756 50.6979C51.9003 50.1358 51.9003 49.4431 51.5756 48.881C51.2508 48.3188 50.6508 47.9725 50.0016 47.9725ZM35.2632 49.7898H38.5338Z" fill="#FFD94C"/>
<path fill-rule="evenodd" clip-rule="evenodd" d="M33.099 55.6243C33.6512 55.3087 34.352 55.5051 34.6644 56.0628L34.8642 56.4183C36.4658 59.256 38.1343 61.9495 39.8697 64.4989C41.9191 67.5096 44.2239 70.5575 46.7842 73.6425C47.186 74.1268 47.1305 74.8468 46.6592 75.2623L46.4018 75.4882C37.9354 82.8856 32.4328 84.3631 29.8939 79.921C27.4105 75.5759 28.3092 67.677 32.59 56.2243C32.685 55.9703 32.8651 55.758 33.099 55.6243ZM69.1723 64.3332C69.7836 64.2253 70.3686 64.6282 70.4883 65.2396L70.5528 65.5732C72.6452 76.5244 71.1719 82 66.1329 82C61.2041 82 54.93 77.3301 47.3106 67.9903C47.1416 67.7831 47.0503 67.5231 47.0526 67.2553C47.0582 66.6234 47.573 66.1156 48.2025 66.1211L48.6041 66.124C51.8129 66.1414 54.9324 66.0301 57.9624 65.79C61.5406 65.5064 65.2773 65.0209 69.1723 64.3332ZM72.0668 41.0787C72.2872 40.4853 72.9509 40.1741 73.5598 40.3785L73.8916 40.4907C84.7721 44.197 88.9062 48.2702 86.294 52.7102C83.7389 57.0532 76.3092 60.2148 64.0049 62.1952C63.732 62.2391 63.452 62.1877 63.2138 62.05C62.6514 61.7249 62.464 61.014 62.7953 60.462L63.006 60.1097C64.6851 57.2911 66.2027 54.486 67.5587 51.6944C69.16 48.3978 70.6627 44.8592 72.0668 41.0787ZM35.9951 37.8047C36.268 37.7608 36.5479 37.8122 36.7862 37.9499C37.3486 38.275 37.536 38.986 37.2047 39.5379L36.994 39.8903C35.3149 42.7089 33.7973 45.514 32.4413 48.3055C30.84 51.6022 29.3373 55.1407 27.9332 58.9212C27.7128 59.5146 27.0491 59.8259 26.4402 59.6214L26.1084 59.5092C15.2279 55.803 11.0937 51.7298 13.706 47.2898C16.2611 42.9468 23.6908 39.7851 35.9951 37.8047ZM53.5982 24.5117C62.0646 17.1144 67.5672 15.6368 70.1061 20.079C72.5894 24.4241 71.6907 32.323 67.41 43.7756C67.315 44.0296 67.1349 44.242 66.901 44.3757C66.3488 44.6912 65.648 44.4949 65.3356 43.9371L65.1357 43.5816C63.5342 40.744 61.8657 38.0504 60.1303 35.501C58.0809 32.4903 55.7761 29.4425 53.2158 26.3574C52.8139 25.8732 52.8695 25.1532 53.3408 24.7377L53.5982 24.5117ZM34.2881 17.5789C39.2169 17.5789 45.4911 22.2488 53.1104 31.5886C53.2794 31.7957 53.3707 32.0558 53.3684 32.3235C53.3629 32.9555 52.8481 33.4633 52.2185 33.4578L51.817 33.4549C48.6081 33.4374 45.4887 33.5488 42.4586 33.7889C38.8804 34.0724 35.1438 34.558 31.2488 35.2457C30.6374 35.3536 30.0524 34.9506 29.9328 34.3392L29.8683 34.0057C27.7758 23.0545 29.2491 17.5789 34.2881 17.5789Z" fill="#FF4154"/>
</svg>
