<svg width="100" height="100" viewBox="0 0 100 100" fill="none" xmlns="http://www.w3.org/2000/svg">
<g clip-path="url(#clip0_705_164)">
<path d="M50 57.6127C53.938 57.6127 57.1304 54.4282 57.1304 50.5C57.1304 46.5718 53.938 43.3873 50 43.3873C46.062 43.3873 42.8696 46.5718 42.8696 50.5C42.8696 54.4282 46.062 57.6127 50 57.6127Z" fill="#61DAFB"/>
<path d="M50 65.0723C71.1309 65.0723 88.2609 58.548 88.2609 50.5C88.2609 42.4519 71.1309 35.9277 50 35.9277C28.8691 35.9277 11.7391 42.4519 11.7391 50.5C11.7391 58.548 28.8691 65.0723 50 65.0723Z" stroke="#61DAFB" stroke-width="3"/>
<path d="M37.3485 57.7861C47.9139 76.0404 62.1432 87.5764 69.1304 83.5523C76.1177 79.5283 73.2169 61.4681 62.6515 43.2138C52.086 24.9595 37.8568 13.4236 30.8696 17.4477C23.8823 21.4717 26.783 39.5318 37.3485 57.7861Z" stroke="#61DAFB" stroke-width="3"/>
<path d="M37.3485 43.2139C26.783 61.4682 23.8823 79.5283 30.8696 83.5524C37.8568 87.5764 52.086 76.0405 62.6515 57.7862C73.2169 39.5319 76.1177 21.4717 69.1304 17.4477C62.1432 13.4236 47.9139 24.9596 37.3485 43.2139Z" stroke="#61DAFB" stroke-width="3"/>
</g>
<defs>
<clipPath id="clip0_705_164">
<rect width="80" height="71" fill="white" transform="translate(10 15)"/>
</clipPath>
</defs>
</svg>
