<svg width="100" height="100" viewBox="0 0 100 100" fill="none" xmlns="http://www.w3.org/2000/svg">
<g clip-path="url(#clip0_705_118)">
<path d="M65.4316 65.171C68.3837 64.8704 70.6234 62.3673 70.5216 59.3632C70.42 56.3595 67.8747 53.9563 64.8206 53.9563H64.6172C61.4609 54.0565 59.0178 56.6598 59.1197 59.7637C59.2216 61.2658 59.8322 62.5674 60.7484 63.4685C57.2872 70.1774 51.9934 75.0837 44.0528 79.189C38.6572 81.9927 33.0581 82.9941 27.4591 82.2933C22.8778 81.6924 19.3147 79.69 17.0747 76.3854C13.8172 71.4791 13.5119 66.172 16.2606 60.8653C18.195 57.0602 21.2487 54.2566 23.1831 52.8547C22.7759 51.5531 22.165 49.3503 21.8597 47.7484C7.09812 58.262 8.62531 72.4804 13.1047 79.189C16.4641 84.1958 23.285 87.2998 30.8184 87.2998C32.8544 87.2998 34.8903 87.0994 36.9266 86.599C49.9575 84.0956 59.8325 76.4856 65.4316 65.171ZM83.3491 52.7548C75.6119 43.8431 64.21 38.9369 51.1791 38.9369H49.5503C48.6341 37.1346 46.6997 35.9328 44.5619 35.9328H44.3581C41.2025 36.033 38.7594 38.6363 38.8609 41.7405C38.9628 44.7443 41.5078 47.1475 44.5619 47.1475H44.7653C47.005 47.0473 48.9394 45.6455 49.7537 43.7429H51.5862C59.3234 43.7429 66.6531 45.9457 73.2706 50.2515C78.3606 53.5558 82.0256 57.8615 84.0616 63.0681C85.7922 67.2736 85.6903 71.3789 83.8578 74.8836C81.0075 80.1904 76.2228 83.0943 69.9109 83.0943C65.8387 83.0943 61.9703 81.8925 59.9341 80.9913C58.8144 81.9927 56.7781 83.5946 55.3528 84.5963C59.7306 86.5987 64.21 87.7002 68.4856 87.7002C78.2587 87.7002 85.4869 82.3932 88.2356 77.0864C91.1878 71.2787 90.9841 61.2658 83.3491 52.7548ZM31.6328 66.8728C31.7347 69.8769 34.2797 72.2797 37.3337 72.2797H37.5375C40.6934 72.1799 43.1366 69.5763 43.0347 66.4723C42.9331 63.4682 40.3878 61.0654 37.3337 61.0654H37.1303C36.9266 61.0654 36.6209 61.0654 36.4178 61.1652C32.2437 54.3565 30.5131 46.9471 31.1241 38.9366C31.5309 32.9287 33.5672 27.7219 37.1303 23.4162C40.0825 19.7113 45.7834 17.909 49.6522 17.8091C60.4431 17.6087 65.0241 30.8258 65.3297 36.1329C66.6531 36.4332 68.8928 37.1342 70.42 37.6349C69.1981 21.4141 59.0178 13.0031 49.245 13.0031C40.0825 13.0031 31.6328 19.5116 28.2731 29.124C23.5903 41.9406 26.6444 54.2566 32.3453 63.9692C31.8366 64.67 31.5309 65.7712 31.6328 66.8728Z" fill="#764ABC"/>
</g>
<defs>
<clipPath id="clip0_705_118">
<rect width="80" height="75" fill="white" transform="translate(10 13)"/>
</clipPath>
</defs>
</svg>
