<svg width="109" height="94" viewBox="0 0 109 94" fill="none" xmlns="http://www.w3.org/2000/svg">
<path d="M80.7315 36.9357C78.0548 36.0941 76.6725 36.3778 73.8649 36.071C69.5246 35.5976 67.7954 33.9013 67.0619 29.5356C66.6514 27.0985 67.1361 23.5302 66.0881 21.3211C64.0839 17.1087 59.3943 15.2196 54.6828 16.2978C50.7049 17.2096 47.3951 21.1852 47.2117 25.266C47.0021 29.9254 49.657 33.901 54.2156 35.273C56.3814 35.9261 58.6825 36.2548 60.9444 36.4214C65.0925 36.7238 65.4113 39.0297 66.5335 40.9277C67.2409 42.1243 67.9264 43.3034 67.9264 46.8714C67.9264 50.4394 67.2365 51.6185 66.5335 52.8151C65.4113 54.7087 64.0271 55.9491 59.879 56.2559C57.6171 56.4225 55.3116 56.7513 53.1502 57.4044C48.5916 58.7807 45.9367 62.7519 46.1463 67.4113C46.3297 71.4921 49.6395 75.4678 53.6174 76.3795C58.3289 77.4621 63.0185 75.5686 65.0227 71.3563C66.075 69.1471 66.6514 66.6443 67.0619 64.2072C67.7998 59.8414 69.5289 58.1451 73.8649 57.6717C76.6725 57.3649 79.5783 57.6717 82.2093 56.177C84.9895 54.1456 87.4734 51.0968 87.4734 46.8714C87.4734 42.6459 84.7967 38.2156 80.7315 36.9357Z" fill="#F44250"/>
<path d="M17.935 78C23.9761 78 28.87 73.0934 28.87 67.045C28.87 60.9966 23.9761 56.09 17.935 56.09C11.8939 56.09 7 60.9966 7 67.045C7 73.0934 11.8939 78 17.935 78Z" fill="white" stroke="black" stroke-width="2"/>
<path d="M36.205 57.78C42.2461 57.78 47.14 52.8734 47.14 46.825C47.14 40.7766 42.2461 35.87 36.205 35.87C30.1639 35.87 25.27 40.7766 25.27 46.825C25.27 52.8734 30.1639 57.78 36.205 57.78Z" fill="white" stroke="black" stroke-width="2"/>
<path d="M91.645 78C97.6861 78 102.58 73.0934 102.58 67.045C102.58 60.9966 97.6861 56.09 91.645 56.09C85.6039 56.09 80.71 60.9966 80.71 67.045C80.71 73.0934 85.6039 78 91.645 78Z" fill="white" stroke="black" stroke-width="2"/>
</svg>
