<svg width="94" height="94" viewBox="0 0 94 94" fill="none" xmlns="http://www.w3.org/2000/svg">
<path d="M72.7315 36.9357C70.0548 36.0941 68.6725 36.3778 65.8649 36.071C61.5246 35.5976 59.7954 33.9013 59.0619 29.5356C58.6514 27.0985 59.1361 23.5302 58.0881 21.3211C56.0839 17.1087 51.3943 15.2196 46.6828 16.2978C42.7049 17.2096 39.3951 21.1852 39.2117 25.266C39.0021 29.9254 41.657 33.901 46.2156 35.273C48.3814 35.9261 50.6825 36.2548 52.9444 36.4214C57.0925 36.7238 57.4113 39.0297 58.5335 40.9277C59.2409 42.1243 59.9264 43.3034 59.9264 46.8714C59.9264 50.4394 59.2365 51.6185 58.5335 52.8151C57.4113 54.7087 56.0271 55.9491 51.879 56.2559C49.6171 56.4225 47.3116 56.7513 45.1502 57.4044C40.5916 58.7807 37.9367 62.7519 38.1463 67.4113C38.3297 71.4921 41.6395 75.4678 45.6174 76.3795C50.3289 77.4621 55.0185 75.5686 57.0227 71.3563C58.075 69.1471 58.6514 66.6443 59.0619 64.2072C59.7998 59.8414 61.5289 58.1451 65.8649 57.6717C68.6725 57.3649 71.5783 57.6717 74.2093 56.177C76.9895 54.1456 79.4734 51.0968 79.4734 46.8714C79.4734 42.6459 76.7967 38.2156 72.7315 36.9357Z" fill="#F44250"/>
<path d="M28.1997 56.7739C22.7285 56.7739 18.2656 52.3027 18.2656 46.8213C18.2656 41.3399 22.7285 36.8687 28.1997 36.8687C33.6709 36.8687 38.1338 41.3399 38.1338 46.8213C38.1338 52.2983 33.6665 56.7739 28.1997 56.7739Z" fill="white"/>
<path d="M9.899 77C4.43661 76.9868 -0.0130938 72.498 2.89511e-05 67.0122C0.0132099 61.5353 4.4936 57.0773 9.96914 57.0948C15.4359 57.108 19.8856 61.5968 19.8681 67.0825C19.8549 72.5551 15.3745 77.0131 9.899 77Z" fill="white"/>
<path d="M83.7137 76.9998C78.2339 77.0304 73.7361 72.5901 73.7052 67.122C73.6747 61.632 78.1068 57.1258 83.5646 57.0949C89.0444 57.0643 93.5423 61.5046 93.5731 66.9727C93.6036 72.4583 89.1716 76.9689 83.7137 76.9998Z" fill="white"/>
</svg>
