<svg width="94" height="94" viewBox="0 0 94 94" fill="none" xmlns="http://www.w3.org/2000/svg">
<g clip-path="url(#clip0_1_2)">
<path d="M72.7315 36.9357C70.0548 36.0941 68.6725 36.3778 65.8649 36.071C61.5246 35.5976 59.7954 33.9013 59.0619 29.5356C58.6514 27.0985 59.1361 23.5302 58.0881 21.3211C56.0839 17.1087 51.3943 15.2196 46.6828 16.2978C42.7049 17.2096 39.3951 21.1852 39.2117 25.266C39.0021 29.9254 41.657 33.901 46.2156 35.273C48.3814 35.9261 50.6825 36.2548 52.9444 36.4214C57.0925 36.7238 57.4113 39.0297 58.5335 40.9277C59.2409 42.1243 59.9264 43.3034 59.9264 46.8714C59.9264 50.4394 59.2365 51.6185 58.5335 52.8151C57.4113 54.7087 56.0271 55.9491 51.879 56.2559C49.6171 56.4225 47.3116 56.7513 45.1502 57.4044C40.5916 58.7807 37.9367 62.7519 38.1463 67.4113C38.3297 71.4921 41.6395 75.4678 45.6174 76.3795C50.3289 77.4621 55.0185 75.5686 57.0227 71.3563C58.075 69.1471 58.6514 66.6443 59.0619 64.2072C59.7998 59.8414 61.5289 58.1451 65.8649 57.6717C68.6725 57.3649 71.5783 57.6717 74.2093 56.177C76.9895 54.1456 79.4734 51.0968 79.4734 46.8714C79.4734 42.6459 76.7967 38.2156 72.7315 36.9357Z" fill="#F44250"/>
<path d="M28.1997 56.2739C23.0055 56.2739 18.7656 52.0274 18.7656 46.8213C18.7656 41.6152 23.0055 37.3687 28.1997 37.3687C33.3939 37.3687 37.6338 41.6152 37.6338 46.8213C37.6338 52.023 33.3895 56.2739 28.1997 56.2739Z" fill="white" stroke="#0E1117"/>
<path d="M9.96754 57.5948L9.96793 57.5948C15.1569 57.6073 19.3847 61.87 19.3681 67.0809V67.0813C19.3556 72.2776 15.0997 76.5125 9.90021 76.5C4.71587 76.4875 0.487561 72.225 0.500028 67.0134C0.512544 61.8126 4.76851 57.5782 9.96754 57.5948Z" fill="white" stroke="#0E1117"/>
<path d="M74.2052 67.1192C74.2346 72.3103 78.5064 76.5289 83.7109 76.4998C88.8899 76.4705 93.1021 72.1878 93.0731 66.9755C93.0439 61.7844 88.772 57.5658 83.5674 57.5949L74.2052 67.1192ZM74.2052 67.1192C74.2052 67.1192 74.2052 67.1192 74.2052 67.1192C74.1762 61.9027 78.3884 57.6242 83.5674 57.5949L74.2052 67.1192Z" fill="white" stroke="#0E1117"/>
</g>
<defs>
<clipPath id="clip0_1_2">
<rect width="94" height="94" fill="white"/>
</clipPath>
</defs>
</svg>
