<svg width="94" height="94" viewBox="0 0 94 94" fill="none" xmlns="http://www.w3.org/2000/svg">
<g clip-path="url(#clip0_1_2)">
<path d="M72.7315 36.9357C70.0548 36.0941 68.6725 36.3778 65.8649 36.071C61.5246 35.5976 59.7954 33.9013 59.0619 29.5356C58.6514 27.0985 59.1361 23.5302 58.0881 21.3211C56.0839 17.1087 51.3943 15.2196 46.6828 16.2978C42.7049 17.2096 39.3951 21.1852 39.2117 25.266C39.0021 29.9254 41.657 33.901 46.2156 35.273C48.3814 35.9261 50.6825 36.2548 52.9444 36.4214C57.0925 36.7238 57.4113 39.0297 58.5335 40.9277C59.2409 42.1243 59.9264 43.3034 59.9264 46.8714C59.9264 50.4394 59.2365 51.6185 58.5335 52.8151C57.4113 54.7087 56.0271 55.9491 51.879 56.2559C49.6171 56.4225 47.3116 56.7513 45.1502 57.4044C40.5916 58.7807 37.9367 62.7519 38.1463 67.4113C38.3297 71.4921 41.6395 75.4678 45.6174 76.3795C50.3289 77.4621 55.0185 75.5686 57.0227 71.3563C58.075 69.1471 58.6514 66.6443 59.0619 64.2072C59.7998 59.8414 61.5289 58.1451 65.8649 57.6717C68.6725 57.3649 71.5783 57.6717 74.2093 56.177C76.9895 54.1456 79.4734 51.0968 79.4734 46.8714C79.4734 42.6459 76.7967 38.2156 72.7315 36.9357Z" fill="#F44250"/>
<path d="M17.2656 46.8213C17.2656 52.8532 22.1745 57.7739 28.1997 57.7739C34.2205 57.7739 39.1338 52.8488 39.1338 46.8213C39.1338 40.7894 34.2249 35.8687 28.1997 35.8687C22.1745 35.8687 17.2656 40.7894 17.2656 46.8213Z" fill="white" stroke="#0E1117" stroke-width="2"/>
<path d="M9.97193 56.0948C3.94355 56.0758 -0.985459 60.9809 -0.999968 67.0098V67.0098C-1.0144 73.0441 3.87809 77.9855 9.89658 78C15.9238 78.0144 20.8531 73.1105 20.8681 67.0857M9.97193 56.0948C15.9942 56.1096 20.8873 61.0506 20.8681 67.0857M9.97193 56.0948C9.97206 56.0948 9.9722 56.0948 9.97234 56.0948L9.96914 57.0948M9.97193 56.0948C9.9718 56.0948 9.97168 56.0948 9.97155 56.0948L9.96914 57.0948M20.8681 67.0857L19.8681 67.0825M20.8681 67.0857C20.8681 67.0854 20.8681 67.0852 20.8681 67.0849L19.8681 67.0825M19.8681 67.0825C19.8549 72.5551 15.3745 77.0131 9.899 77C4.43661 76.9868 -0.0130938 72.498 2.89511e-05 67.0122L9.96914 57.0948M19.8681 67.0825C19.8856 61.5968 15.4359 57.108 9.96914 57.0948" fill="white" stroke="#0E1117" stroke-width="2"/>
<path d="M83.7193 77.9998H83.7194C89.735 77.9657 94.6066 72.9994 94.5731 66.9671V66.9671C94.5392 60.945 89.5893 56.0612 83.559 56.0949L83.5589 56.0949C77.5437 56.129 72.6717 61.0906 72.7052 67.1276L72.7052 67.1277C72.7393 73.1497 77.689 78.0335 83.7193 77.9998Z" fill="white" stroke="#0E1117" stroke-width="2"/>
</g>
<defs>
<clipPath id="clip0_1_2">
<rect width="94" height="94" fill="white"/>
</clipPath>
</defs>
</svg>
