<svg width="109" height="94" viewBox="0 0 109 94" fill="none" xmlns="http://www.w3.org/2000/svg">
<path d="M80.7315 36.9357C78.0548 36.0941 76.6725 36.3778 73.8649 36.071C69.5246 35.5976 67.7954 33.9013 67.0619 29.5356C66.6514 27.0985 67.1361 23.5302 66.0881 21.3211C64.0839 17.1087 59.3943 15.2196 54.6828 16.2978C50.7049 17.2096 47.3951 21.1852 47.2117 25.266C47.0021 29.9254 49.657 33.901 54.2156 35.273C56.3814 35.9261 58.6825 36.2548 60.9444 36.4214C65.0925 36.7238 65.4113 39.0297 66.5335 40.9277C67.2409 42.1243 67.9264 43.3034 67.9264 46.8714C67.9264 50.4394 67.2365 51.6185 66.5335 52.8151C65.4113 54.7087 64.0271 55.9491 59.879 56.2559C57.6171 56.4225 55.3116 56.7513 53.1502 57.4044C48.5916 58.7807 45.9367 62.7519 46.1463 67.4113C46.3297 71.4921 49.6395 75.4678 53.6174 76.3795C58.3289 77.4621 63.0185 75.5686 65.0227 71.3563C66.075 69.1471 66.6514 66.6443 67.0619 64.2072C67.7998 59.8414 69.5289 58.1451 73.8649 57.6717C76.6725 57.3649 79.5783 57.6717 82.2093 56.177C84.9895 54.1456 87.4734 51.0968 87.4734 46.8714C87.4734 42.6459 84.7967 38.2156 80.7315 36.9357Z" fill="#F44250"/>
<path d="M25.2656 46.8213C25.2656 52.8532 30.1745 57.7739 36.1997 57.7739C42.2205 57.7739 47.1338 52.8488 47.1338 46.8213C47.1338 40.7894 42.2249 35.8687 36.1997 35.8687C30.1745 35.8687 25.2656 40.7894 25.2656 46.8213Z" fill="white" stroke="#0E1117" stroke-width="2"/>
<path d="M17.9719 56.0948C11.9435 56.0758 7.01454 60.9809 7.00003 67.0098V67.0098C6.9856 73.0441 11.8781 77.9855 17.8966 78C23.9238 78.0144 28.8531 73.1105 28.8681 67.0857M17.9719 56.0948C23.9942 56.1096 28.8873 61.0506 28.8681 67.0857M17.9719 56.0948C17.9721 56.0948 17.9722 56.0948 17.9723 56.0948L17.9691 57.0948M17.9719 56.0948C17.9718 56.0948 17.9717 56.0948 17.9716 56.0948L17.9691 57.0948M28.8681 67.0857L27.8681 67.0825M28.8681 67.0857C28.8681 67.0854 28.8681 67.0852 28.8681 67.0849L27.8681 67.0825M27.8681 67.0825C27.8549 72.5551 23.3745 77.0131 17.899 77C12.4366 76.9868 7.98691 72.498 8.00003 67.0122L17.9691 57.0948M27.8681 67.0825C27.8856 61.5968 23.4359 57.108 17.9691 57.0948" fill="white" stroke="#0E1117" stroke-width="2"/>
<path d="M91.7193 77.9998H91.7194C97.735 77.9657 102.607 72.9994 102.573 66.9671V66.9671C102.539 60.945 97.5893 56.0612 91.559 56.0949L91.5589 56.0949C85.5437 56.129 80.6717 61.0906 80.7052 67.1276L80.7052 67.1277C80.7393 73.1497 85.689 78.0335 91.7193 77.9998Z" fill="white" stroke="#0E1117" stroke-width="2"/>
</svg>
