<svg width="100" height="100" viewBox="0 0 100 100" fill="none" xmlns="http://www.w3.org/2000/svg">
<path d="M68.5118 42.7194C66.5718 42.1106 65.57 42.3159 63.5351 42.0939C60.3894 41.7515 59.1361 40.5243 58.6045 37.3662C58.307 35.6032 58.6583 33.0219 57.8987 31.4238C56.4461 28.3765 53.0472 27.0099 49.6325 27.7899C46.7494 28.4495 44.3506 31.3255 44.2177 34.2775C44.0657 37.6482 45.9899 40.5241 49.2939 41.5166C50.8636 41.9891 52.5314 42.2269 54.1707 42.3474C57.1771 42.5662 57.4082 44.2343 58.2215 45.6073C58.7342 46.4729 59.2311 47.3259 59.2311 49.907C59.2311 52.4881 58.731 53.341 58.2215 54.2067C57.4082 55.5765 56.405 56.4738 53.3985 56.6958C51.7592 56.8163 50.0882 57.0541 48.5217 57.5266C45.2178 58.5222 43.2936 61.395 43.4455 64.7656C43.5784 67.7177 45.9773 70.5937 48.8603 71.2533C52.2751 72.0364 55.674 70.6666 57.1265 67.6195C57.8892 66.0213 58.307 64.2108 58.6045 62.4478C59.1393 59.2895 60.3925 58.0624 63.5351 57.72C65.57 57.498 67.676 57.72 69.5829 56.6387C71.5979 55.1692 73.3981 52.9636 73.3981 49.907C73.3981 46.8502 71.4582 43.6453 68.5118 42.7194Z" fill="#F44250"/>
<path d="M22.9988 72.4255C27.3772 72.4255 30.9241 68.8761 30.9241 64.5006C30.9241 60.1252 27.3772 56.5757 22.9988 56.5757C18.6203 56.5757 15.0734 60.1252 15.0734 64.5006C15.0734 68.8761 18.6203 72.4255 22.9988 72.4255Z" fill="white" stroke="black" stroke-width="2"/>
<path d="M36.2403 57.7983C40.6187 57.7983 44.1657 54.2488 44.1657 49.8734C44.1657 45.4979 40.6187 41.9485 36.2403 41.9485C31.8619 41.9485 28.315 45.4979 28.315 49.8734C28.315 54.2488 31.8619 57.7983 36.2403 57.7983Z" fill="white" stroke="black" stroke-width="2"/>
<path d="M76.4216 72.4255C80.8 72.4255 84.347 68.8761 84.347 64.5006C84.347 60.1252 80.8 56.5757 76.4216 56.5757C72.0432 56.5757 68.4962 60.1252 68.4962 64.5006C68.4962 68.8761 72.0432 72.4255 76.4216 72.4255Z" fill="white" stroke="black" stroke-width="2"/>
</svg>
