<svg width="100" height="100" viewBox="0 0 100 100" fill="none" xmlns="http://www.w3.org/2000/svg">
<g clip-path="url(#clip0_705_135)">
<path d="M78.8906 54.4844C76.0937 54.5 73.6719 55.1719 71.6406 56.1719C70.8906 54.7031 70.1562 53.375 70.0156 52.4219C69.875 51.2969 69.6875 50.6094 69.875 49.2656C70.0469 47.9219 70.8437 46 70.8281 45.8594C70.8125 45.7187 70.6562 45.0312 69.0469 45.0156C67.4375 45 66.0469 45.3281 65.8906 45.75C65.7344 46.1719 65.4219 47.1406 65.2187 48.125C64.9375 49.5937 62 54.7969 60.3281 57.5312C59.7812 56.4687 59.3125 55.5312 59.2187 54.7812C59.0781 53.6562 58.8906 52.9687 59.0781 51.625C59.25 50.2812 60.0469 48.3594 60.0312 48.2187C60.0156 48.0781 59.8594 47.3906 58.25 47.375C56.6406 47.3594 55.25 47.6875 55.0937 48.1094C54.9375 48.5312 54.75 49.5312 54.4219 50.4844C54.0781 51.4531 50.1875 60.1562 49.1562 62.4062C48.625 63.5625 48.1719 64.4844 47.8594 65.1094C47.8594 65.1094 47.8437 65.1562 47.7969 65.2187C47.5156 65.7656 47.3594 66.0469 47.3594 66.0469V66.0625C47.1406 66.4531 46.9062 66.8281 46.7969 66.8281C46.7031 66.8281 46.5469 65.7812 46.8281 64.3437C47.4062 61.3125 48.7969 56.6094 48.7812 56.4531C48.7812 56.3594 49.0469 55.5469 47.875 55.125C46.7344 54.7031 46.3281 55.4062 46.2187 55.4062C46.1094 55.4062 46.0469 55.6562 46.0469 55.6562C46.0469 55.6562 47.3125 50.3594 43.625 50.3594C41.3125 50.3594 38.125 52.8906 36.5469 55.1719C35.5469 55.7187 33.4375 56.8594 31.1719 58.1094C30.3125 58.5937 29.4219 59.0781 28.5781 59.5312C28.5156 59.4687 28.4687 59.4062 28.4062 59.3437C23.9375 54.5625 15.6719 51.1875 16.0156 44.7812C16.1406 42.4375 16.9531 36.3125 31.9062 28.8594C44.2031 22.7969 54 24.4687 55.6875 28.2031C58.1094 33.5156 50.4375 43.4062 37.7344 44.8281C32.8906 45.375 30.3437 43.5 29.7031 42.7969C29.0312 42.0625 28.9219 42.0156 28.6875 42.1719C28.2812 42.3906 28.5469 43.0469 28.6875 43.4219C29.0625 44.4219 30.625 46.1719 33.2812 47.0312C35.625 47.7969 41.2969 48.2187 48.1875 45.5625C55.8906 42.5781 61.9062 34.2969 60.1406 27.3594C58.3281 20.2969 46.6406 17.9687 35.5781 21.9062C29 24.25 21.875 27.9219 16.75 32.7187C10.6406 38.4219 9.68749 43.375 10.0781 45.4531C11.5 52.8125 21.6562 57.6094 25.7187 61.1562C25.5156 61.2656 25.3281 61.375 25.1562 61.4687C23.125 62.4844 15.375 66.5312 13.4531 70.8125C11.2656 75.6562 13.7969 79.1406 15.4844 79.6094C20.7031 81.0625 26.0625 78.4531 28.9375 74.1562C31.8125 69.8594 31.4687 64.2812 30.1406 61.7187C30.125 61.6875 30.1094 61.6562 30.0781 61.625C30.6094 61.3125 31.1406 61 31.6719 60.6875C32.7031 60.0781 33.7344 59.5 34.6094 59.0312C34.1094 60.3906 33.75 62.0156 33.5781 64.3437C33.3594 67.0937 34.4844 70.6562 35.9531 72.0625C36.6094 72.6719 37.3906 72.6875 37.875 72.6875C39.5937 72.6875 40.375 71.25 41.2344 69.5625C42.2812 67.4844 43.2344 65.0781 43.2344 65.0781C43.2344 65.0781 42.0469 71.5937 45.2656 71.5937C46.4375 71.5937 47.625 70.0781 48.1406 69.2969V69.3125C48.1406 69.3125 48.1719 69.2656 48.2344 69.1719C48.3437 68.9844 48.4219 68.8594 48.4219 68.8594V68.8281C48.8906 68.0156 49.9375 66.1562 51.5 63.0781C53.5156 59.1094 55.4531 54.1406 55.4531 54.1406C55.4531 54.1406 55.625 55.3594 56.2344 57.375C56.5781 58.5625 57.3125 59.8594 57.9062 61.1094C57.4375 61.7656 57.1406 62.125 57.1406 62.125L57.1562 62.1406C56.7812 62.6406 56.3594 63.1719 55.9219 63.7031C54.3281 65.6094 52.4219 67.7812 52.1719 68.4062C51.8594 69.1562 51.9375 69.6875 52.5156 70.125C52.9375 70.4531 53.7031 70.4844 54.4687 70.4531C55.9062 70.3437 56.9062 70 57.4062 69.7812C58.1875 69.5 59.0937 69.0781 59.9375 68.4531C61.5 67.2969 62.4531 65.6406 62.3594 63.4687C62.3125 62.2656 61.9219 61.0781 61.4375 59.9531C61.5781 59.75 61.7187 59.5469 61.8594 59.3437C64.3281 55.7344 66.25 51.7812 66.25 51.7812C66.25 51.7812 66.4219 53 67.0312 55.0156C67.3281 56.0312 67.9219 57.1562 68.4531 58.2344C66.125 60.125 64.7031 62.3125 64.1875 63.75C63.2656 66.4062 63.9844 67.6094 65.3437 67.8906C65.9531 68.0156 66.8281 67.7344 67.4844 67.4531C68.2969 67.1875 69.2656 66.7344 70.1875 66.0625C71.75 64.9062 73.25 63.2969 73.1719 61.125C73.125 60.125 72.8594 59.1562 72.5 58.2031C74.4687 57.3906 77.0156 56.9375 80.2656 57.3125C87.2187 58.125 88.5937 62.4687 88.3281 64.2969C88.0625 66.125 86.6094 67.1094 86.125 67.4219C85.6406 67.7344 85.4844 67.8281 85.5312 68.0469C85.5937 68.375 85.8281 68.3594 86.2344 68.2969C86.7969 68.1875 89.8906 66.8281 90.0156 63.4531C90.2031 59.1406 86.125 54.4531 78.8906 54.4844ZM25.2344 72.5781C22.9219 75.0937 19.7031 76.0469 18.3281 75.2344C16.8437 74.375 17.4219 70.6562 20.25 68C21.9687 66.375 24.1875 64.875 25.6719 63.9531C26.0156 63.75 26.5 63.4531 27.1094 63.0937C27.2187 63.0312 27.2656 63 27.2656 63C27.375 62.9219 27.5 62.8594 27.6094 62.7812C28.6562 66.5937 27.6562 69.9375 25.2344 72.5781ZM42.0312 61.1562C41.2344 63.1094 39.5469 68.125 38.5312 67.8437C37.6562 67.6094 37.1094 63.8125 38.3594 60.0625C38.9844 58.1719 40.3125 55.9219 41.0937 55.0469C42.3437 53.6406 43.7344 53.1719 44.0781 53.75C44.4844 54.4844 42.5312 59.9219 42.0312 61.1562ZM55.9062 67.7812C55.5625 67.9531 55.25 68.0781 55.1094 67.9844C55 67.9219 55.25 67.6875 55.25 67.6875C55.25 67.6875 56.9844 65.8125 57.6719 64.9687C58.0625 64.4687 58.5312 63.8906 59.0312 63.2344V63.4219C59.0312 65.6719 56.8594 67.1719 55.9062 67.7812ZM66.5937 65.3437C66.3437 65.1719 66.3906 64.5781 67.2187 62.75C67.5469 62.0312 68.2969 60.8281 69.5937 59.6875C69.7344 60.1562 69.8437 60.6094 69.8281 61.0312C69.8281 63.8594 67.8125 64.9062 66.5937 65.3437Z" fill="#CD6799"/>
</g>
<defs>
<clipPath id="clip0_705_135">
<rect width="80" height="80" fill="white" transform="translate(10 10)"/>
</clipPath>
</defs>
</svg>
