<svg width="100" height="100" viewBox="0 0 100 100" fill="none" xmlns="http://www.w3.org/2000/svg">
<g clip-path="url(#clip0_705_158)">
<path d="M82.1875 10H17.8125C13.4978 10 10 13.4978 10 17.8125V82.1875C10 86.5022 13.4978 90 17.8125 90H82.1875C86.5022 90 90 86.5022 90 82.1875V17.8125C90 13.4978 86.5022 10 82.1875 10Z" fill="#3178C6"/>
<path d="M82.1875 10H17.8125C13.4978 10 10 13.4978 10 17.8125V82.1875C10 86.5022 13.4978 90 17.8125 90H82.1875C86.5022 90 90 86.5022 90 82.1875V17.8125C90 13.4978 86.5022 10 82.1875 10Z" fill="#3178C6"/>
<path fill-rule="evenodd" clip-rule="evenodd" d="M59.5217 73.66V81.482C60.7933 82.1339 62.2972 82.6227 64.0334 82.9486C65.7697 83.2745 67.5995 83.4375 69.5233 83.4375C71.3981 83.4375 73.1791 83.2583 74.8664 82.8997C76.5537 82.5413 78.0333 81.9505 79.3048 81.1275C80.5764 80.3047 81.5831 79.2291 82.3248 77.9009C83.0666 76.5728 83.4375 74.9311 83.4375 72.9756C83.4375 71.5578 83.2256 70.3153 82.8017 69.248C82.3778 68.1806 81.7666 67.2314 80.9677 66.4003C80.1689 65.5692 79.2111 64.8236 78.0944 64.1636C76.9777 63.5036 75.7183 62.8803 74.3162 62.2937C73.2892 61.87 72.3681 61.4586 71.553 61.0594C70.7378 60.66 70.045 60.2527 69.4744 59.8372C68.9037 59.4216 68.4636 58.9816 68.1539 58.5172C67.8442 58.0527 67.6892 57.5272 67.6892 56.9405C67.6892 56.4028 67.8278 55.918 68.105 55.4861C68.3822 55.0542 68.7734 54.6836 69.2788 54.3739C69.7842 54.0644 70.4036 53.8239 71.1372 53.6528C71.8709 53.4817 72.6859 53.3962 73.5827 53.3962C74.2347 53.3962 74.9234 53.4452 75.6489 53.5428C76.3744 53.6406 77.1039 53.7914 77.8377 53.995C78.5713 54.1987 79.2844 54.4555 79.9773 54.765C80.6702 55.0747 81.31 55.4331 81.8969 55.8406V48.5319C80.7069 48.0756 79.4067 47.7375 77.9966 47.5175C76.5864 47.2975 74.9683 47.1875 73.1425 47.1875C71.2839 47.1875 69.5233 47.3872 67.8605 47.7864C66.1977 48.1856 64.7345 48.8089 63.4709 49.6563C62.2075 50.5038 61.2091 51.5833 60.4755 52.8952C59.7419 54.2069 59.375 55.7753 59.375 57.6005C59.375 59.9308 60.0475 61.9189 61.3925 63.5648C62.7373 65.2106 64.7792 66.6039 67.5181 67.7447C68.5941 68.1847 69.5967 68.6164 70.5259 69.0402C71.4552 69.4639 72.2581 69.9039 72.9345 70.3602C73.6111 70.8164 74.145 71.3134 74.5364 71.8512C74.9277 72.3889 75.1233 73 75.1233 73.6845C75.1233 74.1897 75.0009 74.6581 74.7564 75.09C74.5119 75.5219 74.1409 75.8966 73.6438 76.2144C73.1466 76.5322 72.527 76.7806 71.7853 76.9598C71.0434 77.1392 70.1755 77.2288 69.1809 77.2288C67.4855 77.2288 65.8064 76.9314 64.1434 76.3366C62.4806 75.7419 60.94 74.8497 59.5217 73.66ZM46.3719 54.3878H56.4062V47.9688H28.4375V54.3878H38.4228V82.9688H46.3719V54.3878Z" fill="white"/>
</g>
<defs>
<clipPath id="clip0_705_158">
<rect width="80" height="80" fill="white" transform="translate(10 10)"/>
</clipPath>
</defs>
</svg>
