<svg width="100" height="100" viewBox="0 0 100 100" fill="none" xmlns="http://www.w3.org/2000/svg">
<g clip-path="url(#clip0_705_144)">
<path d="M50 10C27.9151 10 10 27.9151 10 50C10 72.0849 27.9151 90 50 90C72.0849 90 90 72.0849 90 50C90 27.9151 72.0849 10 50 10Z" fill="#368FB9"/>
<path d="M73.5367 64.3938C71.0656 64.9807 69.8147 65.5212 66.7568 67.5135C61.9846 70.6023 56.7645 72.0386 56.7645 72.0386C56.7645 72.0386 56.332 72.6873 55.0811 72.9807C52.9189 73.5058 44.7799 73.9537 44.0386 73.9691C42.0463 73.9846 40.8263 73.4595 40.4865 72.6409C39.4517 70.1699 41.9691 69.0888 41.9691 69.0888C41.9691 69.0888 41.4131 68.749 41.0888 68.4402C40.7954 68.1467 40.4865 67.5598 40.3938 67.7761C40.0077 68.7181 39.807 71.0193 38.7722 72.0541C37.3514 73.4904 34.6641 73.0116 33.0734 72.1776C31.3282 71.251 33.1969 69.0734 33.1969 69.0734C33.1969 69.0734 32.2548 69.6293 31.4981 68.4865C30.8185 67.4363 30.1853 65.6448 30.3552 63.4363C30.5405 60.9189 33.3514 58.4788 33.3514 58.4788C33.3514 58.4788 32.8571 54.7568 34.4788 50.9421C35.9459 47.4672 39.8996 44.6718 39.8996 44.6718C39.8996 44.6718 36.5792 40.9961 37.8147 37.6911C38.6178 35.529 38.9421 35.5444 39.2046 35.4517C40.1313 35.0965 41.027 34.7104 41.6911 33.9846C45.0116 30.4015 49.2432 31.0811 49.2432 31.0811C49.2432 31.0811 51.251 24.9807 53.1043 26.1699C53.6757 26.5405 55.7297 31.112 55.7297 31.112C55.7297 31.112 57.9228 29.8301 58.1699 30.3089C59.4981 32.888 59.6525 37.8147 59.0656 40.8108C58.0772 45.7529 55.6062 48.4093 54.6178 50.0772C54.3861 50.4633 57.2741 51.6834 59.0965 56.7336C60.7799 61.3514 59.2819 65.2278 59.5444 65.6602C59.5907 65.7375 59.6062 65.7683 59.6062 65.7683C59.6062 65.7683 61.5367 65.9228 65.4131 63.529C67.4826 62.2471 69.9382 60.8108 72.7336 60.7799C75.4363 60.7336 75.5753 63.8996 73.5367 64.3938ZM77.2124 62.1236C76.9344 59.9305 75.0811 58.417 72.7027 58.4479C69.1506 58.4942 66.1699 60.3321 64.1931 61.5521C63.4208 62.0309 62.7568 62.3861 62.1853 62.6487C62.3089 60.8571 62.2008 58.5097 61.2741 55.9305C60.1467 52.8417 58.6332 50.9421 57.5521 49.8456C58.8031 48.0232 60.5174 45.3668 61.3205 41.2587C62.0154 37.7529 61.7992 32.3012 60.2085 29.2432C59.8842 28.6255 59.3436 28.1776 58.6641 27.9923C58.3861 27.9151 57.861 27.7606 56.8263 28.0541C55.2664 24.8263 54.7259 24.4865 54.3089 24.2085C53.444 23.6525 52.4247 23.529 51.4672 23.8842C50.1853 24.3475 49.0888 25.583 48.0541 27.7761C47.8996 28.1004 47.7606 28.4093 47.6371 28.7181C45.6757 28.8571 42.5869 29.5676 39.9768 32.3938C39.6525 32.749 39.0193 33.0116 38.3552 33.2587H38.3707C37.0116 33.7375 36.3938 34.8494 35.6371 36.8571C34.5869 39.668 35.668 42.4324 36.7336 44.2239C35.2819 45.5212 33.3514 47.5907 32.332 50.0154C31.0656 53.0116 30.9266 55.946 30.973 57.5367C29.8919 58.6795 28.2239 60.8263 28.0386 63.2355C27.7915 66.6023 29.0116 68.888 29.5521 69.722C29.7066 69.9691 29.8765 70.1699 30.0618 70.3707C30 70.7876 29.9846 71.2355 30.0772 71.6988C30.278 72.7799 30.9575 73.6602 31.9923 74.2162C34.0309 75.2973 36.8726 75.7606 39.0656 74.6641C39.8533 75.4981 41.2896 76.3012 43.8996 76.3012H44.0541C44.7182 76.3012 53.1506 75.8533 55.6062 75.251C56.7027 74.9884 57.4595 74.5251 57.9537 74.1081C59.529 73.6139 63.8842 72.1313 67.9923 69.4749C70.8958 67.5907 71.8996 67.1892 74.0618 66.6641C76.1622 66.1544 77.4749 64.2394 77.2124 62.1236Z" fill="white"/>
</g>
<defs>
<clipPath id="clip0_705_144">
<rect width="80" height="80" fill="white" transform="translate(10 10)"/>
</clipPath>
</defs>
</svg>
